<svg width="21" height="21" viewBox="0 0 21 21" fill="none" xmlns="http://www.w3.org/2000/svg">
<path d="M16.4915 4.99679L15.1237 3.62904C14.7186 3.22362 14.1795 3 13.6058 3C13.0321 3 12.493 3.22329 12.0879 3.62871L4.48372 11.2322C4.45243 11.2635 4.42674 11.2987 4.40434 11.3353C4.39776 11.3458 4.39282 11.3564 4.38689 11.3676C4.37108 11.3979 4.35791 11.4291 4.34803 11.4614C4.34572 11.4683 4.34111 11.4749 4.33946 11.4822L3.01947 16.365C2.9671 16.5586 3.0221 16.7655 3.16372 16.9071C3.2701 17.0131 3.41303 17.0711 3.55959 17.0711C3.60833 17.0711 3.6574 17.0645 3.70548 17.0517L8.3785 15.7883C8.41571 15.7959 8.45392 15.8002 8.49179 15.8002C8.63538 15.8002 8.77832 15.7455 8.88766 15.6361L16.4915 8.03298C16.8969 7.62757 17.1205 7.08811 17.1202 6.51472C17.1205 5.94134 16.8972 5.40221 16.4915 4.99679ZM8.49212 14.4485L5.67165 11.6281L11.6752 5.62452L14.496 8.44466L8.49212 14.4485ZM4.35461 15.7165L5.16809 12.708L7.36314 14.903L4.35461 15.7165ZM15.6997 7.24125L15.2881 7.65292L12.4673 4.83278L12.8796 4.42078C13.2676 4.03281 13.944 4.03281 14.332 4.42078L15.6997 5.78886C15.8937 5.98284 16.0008 6.24104 16.0008 6.51538C16.0008 6.78972 15.8941 7.04727 15.6997 7.24125Z" fill="black"/>
<path d="M11.6007 7.7272L8.08725 11.2406L8.87903 12.0324L12.3924 8.51898L11.6007 7.7272Z" fill="black"/>
</svg>
