<svg width="21" height="22" viewBox="0 0 21 22" fill="none" xmlns="http://www.w3.org/2000/svg">
<path d="M4.4791 5.45008L5.2791 18.2501C5.3171 18.9897 5.8551 19.5301 6.5591 19.5301H13.9191C14.6259 19.5301 15.1539 18.9897 15.1991 18.2501L15.9991 5.45008" stroke=" rgb(255, 124, 124)" stroke-width="1.28" stroke-linecap="round" stroke-linejoin="round"/>
<path d="M3.2002 5.45006H17.2802Z" fill=" rgb(255, 124, 124)"/>
<path d="M3.2002 5.45006H17.2802" stroke=" rgb(255, 124, 124)" stroke-width="1.28" stroke-miterlimit="10" stroke-linecap="round"/>
<path d="M7.67995 5.45012V3.85012C7.67959 3.72395 7.70416 3.59895 7.75228 3.48231C7.80039 3.36567 7.87109 3.25969 7.96031 3.17047C8.04953 3.08126 8.1555 3.01056 8.27214 2.96244C8.38878 2.91433 8.51378 2.88975 8.63995 2.89012H11.84C11.9661 2.88975 12.0911 2.91433 12.2078 2.96244C12.3244 3.01056 12.4304 3.08126 12.5196 3.17047C12.6088 3.25969 12.6795 3.36567 12.7276 3.48231C12.7757 3.59895 12.8003 3.72395 12.8 3.85012V5.45012M10.24 8.01012V16.9701M7.35995 8.01012L7.67995 16.9701M13.12 8.01012L12.8 16.9701" stroke=" rgb(255, 124, 124)" stroke-width="1.28" stroke-linecap="round" stroke-linejoin="round"/>
</svg>
